<svg class="diagram-root" style="background: #f5f6f6" xmlns="http://www.w3.org/2000/svg" xmlns:xlink="http://www.w3.org/1999/xlink"><style>.diagram-root { font-family: "Helvetica Neue", sans-serif; font-size: 12px; } .t { overflow: visible; } .t-bg { y: 40; fill: #fff;   } .th { fill: #005aa0;   } .tht { fill: #fff; font-size: 14px;  } .tf { fill: #323c46; overflow: visible; } .tf.pk { fill: #005aa0; font-weight: bold; } .tf.fk { font-weight: bold; } .ty { fill: #adb1b5; font-weight: normal; text-anchor: end; } .r { fill: transparent; stroke: #c3c3c3; stroke-width: 1; } .l { stroke: 1; } .i { fill: #c2c7ce; stroke: #c2c7ce; } .i.ix { fill: #afb3b6; stroke: #000; } .fa { fill: transparent; overflow: visible; } .fa .bg.hover { fill: #f7f7f7; } .c { cy: 12; r: 4; stroke: #d2d2dc; fill: #d2d2dc; } .hr { fill: transparent; stroke: #323c46; stroke-opacity: 0.035; stroke-width: 13; } .dc { stroke: #fa5a3c; fill: #fa5a3c; } .x { stroke: white; stroke-width: 1; } .hl .th { fill: #1b9bff; } .hl .tht {  } .fhl .bg { fill: #e7f4ff; } .fhls .bg {  } .r.hl { stroke: #1b9bff; } .dim { opacity: 0.25; }</style><g class="drawing-wrapper" transform="translate(-65.22222222222224, 15.555555555555571) scale(1,1)"><g class="rs"><path d="M 87.22222222222224 325.3333333333335 m -1, 0 a 1,1 0 1,0 2,0 a 1,1 0 1,0 -2,0 M 87.22222222222224 325.3333333333335 m -0.5, 0 a 0.5,0.5 0 1,0 1,0 a 0.5,0.5 0 1,0 -1,0  M87.22222222222224 325.3333333333335 L87.22222222222224 325.3333333333335 75.22222222222224 325.3333333333335 M 87.22222222222224 331.3333333333335 m -1, 0 a 1,1 0 1,0 2,0 a 1,1 0 1,0 -2,0 M 87.22222222222224 331.3333333333335 m -0.5, 0 a 0.5,0.5 0 1,0 1,0 a 0.5,0.5 0 1,0 -1,0  M87.22222222222224 331.3333333333335 L87.22222222222224 331.3333333333335 80.22222222222224 325.3333333333335 87.22222222222224 319.3333333333335 M 87.22222222222224 319.3333333333335 m -1, 0 a 1,1 0 1,0 2,0 a 1,1 0 1,0 -2,0 M 87.22222222222224 319.3333333333335 m -0.5, 0 a 0.5,0.5 0 1,0 1,0 a 0.5,0.5 0 1,0 -1,0  M75.22222222222224 325.3333333333335 C 25.222222222222243 325.3333333333335, 24.222222222222378 71.44444444444443, 76.88888888888869 71.44444444444443 M 88.88888888888869 71.44444444444443 m -1, 0 a 1,1 0 1,0 2,0 a 1,1 0 1,0 -2,0 M 88.88888888888869 71.44444444444443 m -0.5, 0 a 0.5,0.5 0 1,0 1,0 a 0.5,0.5 0 1,0 -1,0  M88.88888888888869 71.44444444444443 L88.88888888888869 71.44444444444443 76.88888888888869 71.44444444444443 M82.88888888888869 77.44444444444443 L82.88888888888869 77.44444444444443 82.88888888888869 65.44444444444443" id="h133153459" class="r"></path><path d="M 619.4444444444426 413.6666666666657 m -1, 0 a 1,1 0 1,0 2,0 a 1,1 0 1,0 -2,0 M 619.4444444444426 413.6666666666657 m -0.5, 0 a 0.5,0.5 0 1,0 1,0 a 0.5,0.5 0 1,0 -1,0  M619.4444444444426 413.6666666666657 L619.4444444444426 413.6666666666657 607.4444444444426 413.6666666666657 M 619.4444444444426 419.6666666666657 m -1, 0 a 1,1 0 1,0 2,0 a 1,1 0 1,0 -2,0 M 619.4444444444426 419.6666666666657 m -0.5, 0 a 0.5,0.5 0 1,0 1,0 a 0.5,0.5 0 1,0 -1,0  M619.4444444444426 419.6666666666657 L619.4444444444426 419.6666666666657 612.4444444444426 413.6666666666657 619.4444444444426 407.6666666666657 M 619.4444444444426 407.6666666666657 m -1, 0 a 1,1 0 1,0 2,0 a 1,1 0 1,0 -2,0 M 619.4444444444426 407.6666666666657 m -0.5, 0 a 0.5,0.5 0 1,0 1,0 a 0.5,0.5 0 1,0 -1,0  M607.4444444444426 413.6666666666657 Q 522.6 413.6666666666657, 437.75 534.78 T 268.06 655.8888888888889 M 256.06 655.8888888888889 m -1, 0 a 1,1 0 1,0 2,0 a 1,1 0 1,0 -2,0 M 256.06 655.8888888888889 m -0.5, 0 a 0.5,0.5 0 1,0 1,0 a 0.5,0.5 0 1,0 -1,0  M256.06 655.8888888888889 L256.06 655.8888888888889 268.06 655.8888888888889 M262.06 661.8888888888889 L262.06 661.8888888888889 262.06 649.8888888888889" id="h3938640815" class="r"></path><path d="M 619.4444444444426 438.6666666666657 m -1, 0 a 1,1 0 1,0 2,0 a 1,1 0 1,0 -2,0 M 619.4444444444426 438.6666666666657 m -0.5, 0 a 0.5,0.5 0 1,0 1,0 a 0.5,0.5 0 1,0 -1,0  M619.4444444444426 438.6666666666657 L619.4444444444426 438.6666666666657 607.4444444444426 438.6666666666657 M 619.4444444444426 444.6666666666657 m -1, 0 a 1,1 0 1,0 2,0 a 1,1 0 1,0 -2,0 M 619.4444444444426 444.6666666666657 m -0.5, 0 a 0.5,0.5 0 1,0 1,0 a 0.5,0.5 0 1,0 -1,0  M619.4444444444426 444.6666666666657 L619.4444444444426 444.6666666666657 612.4444444444426 438.6666666666657 619.4444444444426 432.6666666666657 M 619.4444444444426 432.6666666666657 m -1, 0 a 1,1 0 1,0 2,0 a 1,1 0 1,0 -2,0 M 619.4444444444426 432.6666666666657 m -0.5, 0 a 0.5,0.5 0 1,0 1,0 a 0.5,0.5 0 1,0 -1,0  M607.4444444444426 438.6666666666657 Q 522.51 438.6666666666657, 437.58 369.5 T 267.72 300.3333333333335 M 255.72 300.3333333333335 m -1, 0 a 1,1 0 1,0 2,0 a 1,1 0 1,0 -2,0 M 255.72 300.3333333333335 m -0.5, 0 a 0.5,0.5 0 1,0 1,0 a 0.5,0.5 0 1,0 -1,0  M255.72 300.3333333333335 L255.72 300.3333333333335 267.72 300.3333333333335 M261.72 306.3333333333335 L261.72 306.3333333333335 261.72 294.3333333333335" id="h2236480477" class="r"></path><path d="M 625.5555555555543 589.222222222223 m -1, 0 a 1,1 0 1,0 2,0 a 1,1 0 1,0 -2,0 M 625.5555555555543 589.222222222223 m -0.5, 0 a 0.5,0.5 0 1,0 1,0 a 0.5,0.5 0 1,0 -1,0  M625.5555555555543 589.222222222223 L625.5555555555543 589.222222222223 613.5555555555543 589.222222222223 M 625.5555555555543 595.222222222223 m -1, 0 a 1,1 0 1,0 2,0 a 1,1 0 1,0 -2,0 M 625.5555555555543 595.222222222223 m -0.5, 0 a 0.5,0.5 0 1,0 1,0 a 0.5,0.5 0 1,0 -1,0  M625.5555555555543 595.222222222223 L625.5555555555543 595.222222222223 618.5555555555543 589.222222222223 625.5555555555543 583.222222222223 M 625.5555555555543 583.222222222223 m -1, 0 a 1,1 0 1,0 2,0 a 1,1 0 1,0 -2,0 M 625.5555555555543 583.222222222223 m -0.5, 0 a 0.5,0.5 0 1,0 1,0 a 0.5,0.5 0 1,0 -1,0  M613.5555555555543 589.222222222223 Q 527.1 589.222222222223, 440.64 444.78 T 267.72 300.3333333333335 M 255.72 300.3333333333335 m -1, 0 a 1,1 0 1,0 2,0 a 1,1 0 1,0 -2,0 M 255.72 300.3333333333335 m -0.5, 0 a 0.5,0.5 0 1,0 1,0 a 0.5,0.5 0 1,0 -1,0  M255.72 300.3333333333335 L255.72 300.3333333333335 267.72 300.3333333333335 M261.72 306.3333333333335 L261.72 306.3333333333335 261.72 294.3333333333335" id="h2664116747" class="r"></path><path d="M 625.5555555555543 614.222222222223 m -1, 0 a 1,1 0 1,0 2,0 a 1,1 0 1,0 -2,0 M 625.5555555555543 614.222222222223 m -0.5, 0 a 0.5,0.5 0 1,0 1,0 a 0.5,0.5 0 1,0 -1,0  M625.5555555555543 614.222222222223 L625.5555555555543 614.222222222223 613.5555555555543 614.222222222223 M 625.5555555555543 620.222222222223 m -1, 0 a 1,1 0 1,0 2,0 a 1,1 0 1,0 -2,0 M 625.5555555555543 620.222222222223 m -0.5, 0 a 0.5,0.5 0 1,0 1,0 a 0.5,0.5 0 1,0 -1,0  M625.5555555555543 620.222222222223 L625.5555555555543 620.222222222223 618.5555555555543 614.222222222223 625.5555555555543 608.222222222223 M 625.5555555555543 608.222222222223 m -1, 0 a 1,1 0 1,0 2,0 a 1,1 0 1,0 -2,0 M 625.5555555555543 608.222222222223 m -0.5, 0 a 0.5,0.5 0 1,0 1,0 a 0.5,0.5 0 1,0 -1,0  M613.5555555555543 614.222222222223 Q 527.18 614.222222222223, 440.81 635.06 T 268.06 655.8888888888889 M 256.06 655.8888888888889 m -1, 0 a 1,1 0 1,0 2,0 a 1,1 0 1,0 -2,0 M 256.06 655.8888888888889 m -0.5, 0 a 0.5,0.5 0 1,0 1,0 a 0.5,0.5 0 1,0 -1,0  M256.06 655.8888888888889 L256.06 655.8888888888889 268.06 655.8888888888889 M262.06 661.8888888888889 L262.06 661.8888888888889 262.06 649.8888888888889" id="h1977445364" class="r"></path><path d="M 632.7777777777771 169.222222222222 m -1, 0 a 1,1 0 1,0 2,0 a 1,1 0 1,0 -2,0 M 632.7777777777771 169.222222222222 m -0.5, 0 a 0.5,0.5 0 1,0 1,0 a 0.5,0.5 0 1,0 -1,0  M632.7777777777771 169.222222222222 L632.7777777777771 169.222222222222 620.7777777777771 169.222222222222 M 632.7777777777771 175.222222222222 m -1, 0 a 1,1 0 1,0 2,0 a 1,1 0 1,0 -2,0 M 632.7777777777771 175.222222222222 m -0.5, 0 a 0.5,0.5 0 1,0 1,0 a 0.5,0.5 0 1,0 -1,0  M632.7777777777771 175.222222222222 L632.7777777777771 175.222222222222 625.7777777777771 169.222222222222 632.7777777777771 163.222222222222 M 632.7777777777771 163.222222222222 m -1, 0 a 1,1 0 1,0 2,0 a 1,1 0 1,0 -2,0 M 632.7777777777771 163.222222222222 m -0.5, 0 a 0.5,0.5 0 1,0 1,0 a 0.5,0.5 0 1,0 -1,0  M620.7777777777771 169.222222222222 Q 532.51 169.222222222222, 444.25 234.78 T 267.72 300.3333333333335 M 255.72 300.3333333333335 m -1, 0 a 1,1 0 1,0 2,0 a 1,1 0 1,0 -2,0 M 255.72 300.3333333333335 m -0.5, 0 a 0.5,0.5 0 1,0 1,0 a 0.5,0.5 0 1,0 -1,0  M255.72 300.3333333333335 L255.72 300.3333333333335 267.72 300.3333333333335 M261.72 306.3333333333335 L261.72 306.3333333333335 261.72 294.3333333333335" id="h221257298" class="r"></path></g><g class="hrs"></g><g class="ts"><svg width="158.48" height="100" x="88.88888888888869" y="14.444444444444429" id="h3517680912" class="t"><rect height="40" width="158.48" class="th"></rect><text x="13" y="25" class="tht">Titles</text><rect height="60" width="158.48" class="t-bg" y="40"></rect><text x="13" y="61" class="tf pk">title_id<tspan x="145.48" class="ty">VARCHAR</tspan></text><path d="M7,14A2,2 0 0,1 5,12A2,2 0 0,1 7,10A2,2 0 0,1 9,12A2,2 0 0,1 7,14M12.65,10C11.83,7.67 9.61,6 7, 6A6, 6 0 0, 0 1, 12A6, 6 0 0, 0 7, 18C9.61, 18 11.83, 16.33 12.65, 14H17V18H21V14H23V10H12.65Z" class="i pk" transform="translate(67.68898437499999, 48) scale(0.65)"></path><text x="13" y="86" class="tf">title<tspan x="145.48" class="ty">VARCHAR</tspan></text></svg><svg width="168.5" height="225" x="87.22222222222224" y="243.33333333333348" id="h3299212598" class="t"><rect height="40" width="168.5" class="th"></rect><text x="13" y="25" class="tht">Employees</text><rect height="185" width="168.5" class="t-bg" y="40"></rect><text x="13" y="61" class="tf pk">emp_no<tspan x="155.5" class="ty">INT</tspan></text><path d="M7,14A2,2 0 0,1 5,12A2,2 0 0,1 7,10A2,2 0 0,1 9,12A2,2 0 0,1 7,14M12.65,10C11.83,7.67 9.61,6 7, 6A6, 6 0 0, 0 1, 12A6, 6 0 0, 0 7, 18C9.61, 18 11.83, 16.33 12.65, 14H17V18H21V14H23V10H12.65Z" class="i pk" transform="translate(116.169921875, 48) scale(0.65)"></path><text x="13" y="86" class="tf fk">emp_title_id<tspan x="155.5" class="ty">VARCHAR</tspan></text><text x="13" y="111" class="tf">birth_date<tspan x="155.5" class="ty">DATE</tspan></text><text x="13" y="136" class="tf">first_name<tspan x="155.5" class="ty">VARCHAR</tspan></text><text x="13" y="161" class="tf">last_name<tspan x="155.5" class="ty">VARCHAR</tspan></text><text x="13" y="186" class="tf">sex<tspan x="155.5" class="ty">VARCHAR</tspan></text><text x="13" y="211" class="tf">hire_date<tspan x="155.5" class="ty">VARCHAR</tspan></text></svg><svg width="167.17" height="100" x="88.88888888888823" y="598.8888888888889" id="h3708248841" class="t"><rect height="40" width="167.17" class="th"></rect><text x="13" y="25" class="tht">Departments</text><rect height="60" width="167.17" class="t-bg" y="40"></rect><text x="13" y="61" class="tf pk">dept_no<tspan x="154.17" class="ty">VARCHAR</tspan></text><path d="M7,14A2,2 0 0,1 5,12A2,2 0 0,1 7,10A2,2 0 0,1 9,12A2,2 0 0,1 7,14M12.65,10C11.83,7.67 9.61,6 7, 6A6, 6 0 0, 0 1, 12A6, 6 0 0, 0 7, 18C9.61, 18 11.83, 16.33 12.65, 14H17V18H21V14H23V10H12.65Z" class="i pk" transform="translate(76.37898437499999, 48) scale(0.65)"></path><text x="13" y="86" class="tf">dept_name<tspan x="154.17" class="ty">VARCHAR</tspan></text></svg><svg width="167.17" height="100" x="619.4444444444426" y="356.6666666666657" id="h2688323695" class="t"><rect height="40" width="167.17" class="th"></rect><text x="13" y="25" class="tht">DeptMgr</text><rect height="60" width="167.17" class="t-bg" y="40"></rect><text x="13" y="61" class="tf pk">dept_no<tspan x="154.17" class="ty">VARCHAR</tspan></text><path d="M7,14A2,2 0 0,1 5,12A2,2 0 0,1 7,10A2,2 0 0,1 9,12A2,2 0 0,1 7,14M12.65,10C11.83,7.67 9.61,6 7, 6A6, 6 0 0, 0 1, 12A6, 6 0 0, 0 7, 18C9.61, 18 11.83, 16.33 12.65, 14H17V18H21V14H23V10H12.65Z" class="i pk" transform="translate(76.37898437499999, 48) scale(0.65)"></path><text x="13" y="86" class="tf pk">emp_no<tspan x="154.17" class="ty">INT</tspan></text><path d="M7,14A2,2 0 0,1 5,12A2,2 0 0,1 7,10A2,2 0 0,1 9,12A2,2 0 0,1 7,14M12.65,10C11.83,7.67 9.61,6 7, 6A6, 6 0 0, 0 1, 12A6, 6 0 0, 0 7, 18C9.61, 18 11.83, 16.33 12.65, 14H17V18H21V14H23V10H12.65Z" class="i pk" transform="translate(114.83992187499999, 73) scale(0.65)"></path></svg><svg width="167.17" height="100" x="625.5555555555543" y="532.222222222223" id="h808469459" class="t"><rect height="40" width="167.17" class="th"></rect><text x="13" y="25" class="tht">DeptEmp</text><rect height="60" width="167.17" class="t-bg" y="40"></rect><text x="13" y="61" class="tf pk">emp_no<tspan x="154.17" class="ty">INT</tspan></text><path d="M7,14A2,2 0 0,1 5,12A2,2 0 0,1 7,10A2,2 0 0,1 9,12A2,2 0 0,1 7,14M12.65,10C11.83,7.67 9.61,6 7, 6A6, 6 0 0, 0 1, 12A6, 6 0 0, 0 7, 18C9.61, 18 11.83, 16.33 12.65, 14H17V18H21V14H23V10H12.65Z" class="i pk" transform="translate(114.83992187499999, 48) scale(0.65)"></path><text x="13" y="86" class="tf pk">dept_no<tspan x="154.17" class="ty">VARCHAR</tspan></text><path d="M7,14A2,2 0 0,1 5,12A2,2 0 0,1 7,10A2,2 0 0,1 9,12A2,2 0 0,1 7,14M12.65,10C11.83,7.67 9.61,6 7, 6A6, 6 0 0, 0 1, 12A6, 6 0 0, 0 7, 18C9.61, 18 11.83, 16.33 12.65, 14H17V18H21V14H23V10H12.65Z" class="i pk" transform="translate(76.37898437499999, 73) scale(0.65)"></path></svg><svg width="128.7" height="100" x="632.7777777777771" y="112.22222222222202" id="h3858243705" class="t"><rect height="40" width="128.7" class="th"></rect><text x="13" y="25" class="tht">Salaries</text><rect height="60" width="128.7" class="t-bg" y="40"></rect><text x="13" y="61" class="tf pk">emp_no<tspan x="115.69999999999999" class="ty">INT</tspan></text><path d="M7,14A2,2 0 0,1 5,12A2,2 0 0,1 7,10A2,2 0 0,1 9,12A2,2 0 0,1 7,14M12.65,10C11.83,7.67 9.61,6 7, 6A6, 6 0 0, 0 1, 12A6, 6 0 0, 0 7, 18C9.61, 18 11.83, 16.33 12.65, 14H17V18H21V14H23V10H12.65Z" class="i pk" transform="translate(76.36992187499999, 48) scale(0.65)"></path><text x="13" y="86" class="tf">salary<tspan x="115.69999999999999" class="ty">INT</tspan></text></svg></g></g><text class="qdbd-link" x="10" y="20">www.quickdatabasediagrams.com</text></svg>